<svg width="22" height="22" viewBox="0 0 22 22" fill="none" xmlns="http://www.w3.org/2000/svg">
<g id="Frame">
<g id="SVGRepo_iconCarrier">
<path id="Vector" d="M12.8333 1.83301C12.8333 1.83301 14.8499 2.01634 17.4166 4.58301C19.9833 7.14967 20.1666 9.16634 20.1666 9.16634" stroke="#2CDD00" stroke-width="2" stroke-linecap="round"/>
<path id="Vector_2" d="M13.0231 5.07422C13.0231 5.07422 13.9306 5.3335 15.2917 6.69467C16.6529 8.05586 16.9122 8.96331 16.9122 8.96331" stroke="#2CDD00" stroke-width="2" stroke-linecap="round"/>
<path id="Vector_3" d="M9.20109 4.87251L9.79601 5.93852C10.3329 6.90055 10.1174 8.16256 9.27177 9.00817C9.27177 9.00817 8.24619 10.0339 10.1058 11.8936C11.9648 13.7526 12.9911 12.7275 12.9911 12.7275C13.8368 11.8819 15.0987 11.6664 16.0608 12.2033L17.1268 12.7982C18.5795 13.6089 18.751 15.6461 17.4742 16.923C16.7069 17.6903 15.767 18.2873 14.728 18.3266C12.9789 18.393 10.0084 17.9503 7.02869 14.9706C4.049 11.9909 3.60632 9.02047 3.67263 7.27135C3.71202 6.23232 4.30903 5.29239 5.07629 4.52514C6.35316 3.24827 8.39037 3.41984 9.20109 4.87251Z" stroke="white" stroke-width="1.7" stroke-linecap="round"/>
</g>
</g>
</svg>
