<svg xmlns="http://www.w3.org/2000/svg" width="39" height="39" viewBox="0 0 39 39" fill="none">
<mask id="path-1-inside-1_740_255" fill="white">
<path d="M22.0637 4.41426C22.7286 4.41426 23.2676 3.87525 23.2676 3.21036C23.2676 2.54548 22.7286 2.00647 22.0637 2.00647V4.41426ZM36.9118 16.8545C36.9118 16.1896 36.3727 15.6506 35.7079 15.6506C35.043 15.6506 34.504 16.1896 34.504 16.8545H36.9118ZM22.4363 34.9445L23.3065 33.4745L21.2343 32.248L20.3642 33.7181L22.4363 34.9445ZM16.0054 33.4745L16.8756 34.9445L18.9476 33.7181L18.0774 32.248L16.0054 33.4745ZM20.3642 33.7181C20.0548 34.2408 19.2571 34.2408 18.9476 33.7181L16.8756 34.9445C18.1174 37.0425 21.1945 37.0425 22.4363 34.9445L20.3642 33.7181ZM17.2482 4.41426H22.0637V2.00647H17.2482V4.41426ZM34.504 16.8545V18.4597H36.9118V16.8545H34.504ZM4.80793 18.4597V16.8545H2.40015V18.4597H4.80793ZM2.40015 18.4597C2.40015 20.313 2.39949 21.7633 2.4793 22.933C2.55986 24.1136 2.72637 25.0962 3.10272 26.0047L5.32723 25.0833C5.09265 24.517 4.9537 23.8271 4.88152 22.7691C4.80859 21.7004 4.80793 20.3459 4.80793 18.4597H2.40015ZM12.9182 29.2812C10.9029 29.2464 9.847 29.1183 9.0193 28.7754L8.09789 30.9999C9.39002 31.5351 10.8617 31.6539 12.8767 31.6885L12.9182 29.2812ZM3.10272 26.0047C4.0395 28.2663 5.83632 30.0631 8.09789 30.9999L9.0193 28.7754C7.3477 28.083 6.01963 26.755 5.32723 25.0833L3.10272 26.0047ZM34.504 18.4597C34.504 20.3459 34.5033 21.7004 34.4305 22.7691C34.3582 23.8271 34.2192 24.517 33.9847 25.0833L36.2092 26.0047C36.5856 25.0962 36.752 24.1136 36.8326 22.933C36.9124 21.7633 36.9118 20.313 36.9118 18.4597H34.504ZM26.4352 31.6885C28.4502 31.6539 29.922 31.5351 31.214 30.9999L30.2926 28.7754C29.465 29.1183 28.4089 29.2464 26.3937 29.2812L26.4352 31.6885ZM33.9847 25.0833C33.2922 26.755 31.9642 28.083 30.2926 28.7754L31.214 30.9999C33.4755 30.0631 35.2724 28.2663 36.2092 26.0047L33.9847 25.0833ZM17.2482 2.00647C14.6442 2.00647 12.6068 2.0052 10.9817 2.15972C9.33868 2.31593 7.99336 2.63983 6.80741 3.36658L8.06548 5.41956C8.80953 4.9636 9.74284 4.69615 11.2096 4.55669C12.6942 4.41553 14.5976 4.41426 17.2482 4.41426V2.00647ZM4.80793 16.8545C4.80793 14.2039 4.8092 12.3006 4.95036 10.8159C5.08982 9.34916 5.35728 8.41585 5.81323 7.6718L3.76026 6.41373C3.03351 7.59968 2.70961 8.94501 2.55339 10.588C2.39888 12.2131 2.40015 14.2506 2.40015 16.8545H4.80793ZM6.80741 3.36658C5.56549 4.12763 4.52131 5.17181 3.76026 6.41373L5.81323 7.6718C6.37576 6.75386 7.14753 5.98208 8.06548 5.41956L6.80741 3.36658ZM18.0774 32.248C17.7516 31.6974 17.4655 31.2115 17.1873 30.8298C16.8942 30.4278 16.5583 30.0659 16.0922 29.7947L14.8817 31.8762C14.9578 31.9203 15.0614 32.0011 15.2414 32.248C15.4363 32.5154 15.6564 32.8847 16.0054 33.4745L18.0774 32.248ZM12.8767 31.6885C13.5815 31.7007 14.0279 31.7097 14.3683 31.7473C14.6863 31.7826 14.8095 31.8341 14.8817 31.8762L16.0922 29.7947C15.6223 29.5214 15.1333 29.4095 14.6333 29.3541C14.1556 29.3013 13.5783 29.2926 12.9182 29.2812L12.8767 31.6885ZM23.3065 33.4745C23.6554 32.8847 23.8755 32.5154 24.0704 32.248C24.2503 32.0011 24.354 31.9203 24.4301 31.8762L23.2196 29.7947C22.7537 30.0659 22.4175 30.4278 22.1246 30.8298C21.8464 31.2115 21.5604 31.6974 21.2343 32.248L23.3065 33.4745ZM26.3937 29.2812C25.7335 29.2926 25.1563 29.3013 24.6786 29.3541C24.1786 29.4095 23.6896 29.5214 23.2196 29.7947L24.4301 31.8762C24.5023 31.8341 24.6256 31.7826 24.9436 31.7473C25.2839 31.7097 25.7303 31.7007 26.4352 31.6885L26.3937 29.2812Z"/>
</mask>
<path d="M22.0637 4.41426C22.7286 4.41426 23.2676 3.87525 23.2676 3.21036C23.2676 2.54548 22.7286 2.00647 22.0637 2.00647V4.41426ZM36.9118 16.8545C36.9118 16.1896 36.3727 15.6506 35.7079 15.6506C35.043 15.6506 34.504 16.1896 34.504 16.8545H36.9118ZM22.4363 34.9445L23.3065 33.4745L21.2343 32.248L20.3642 33.7181L22.4363 34.9445ZM16.0054 33.4745L16.8756 34.9445L18.9476 33.7181L18.0774 32.248L16.0054 33.4745ZM20.3642 33.7181C20.0548 34.2408 19.2571 34.2408 18.9476 33.7181L16.8756 34.9445C18.1174 37.0425 21.1945 37.0425 22.4363 34.9445L20.3642 33.7181ZM17.2482 4.41426H22.0637V2.00647H17.2482V4.41426ZM34.504 16.8545V18.4597H36.9118V16.8545H34.504ZM4.80793 18.4597V16.8545H2.40015V18.4597H4.80793ZM2.40015 18.4597C2.40015 20.313 2.39949 21.7633 2.4793 22.933C2.55986 24.1136 2.72637 25.0962 3.10272 26.0047L5.32723 25.0833C5.09265 24.517 4.9537 23.8271 4.88152 22.7691C4.80859 21.7004 4.80793 20.3459 4.80793 18.4597H2.40015ZM12.9182 29.2812C10.9029 29.2464 9.847 29.1183 9.0193 28.7754L8.09789 30.9999C9.39002 31.5351 10.8617 31.6539 12.8767 31.6885L12.9182 29.2812ZM3.10272 26.0047C4.0395 28.2663 5.83632 30.0631 8.09789 30.9999L9.0193 28.7754C7.3477 28.083 6.01963 26.755 5.32723 25.0833L3.10272 26.0047ZM34.504 18.4597C34.504 20.3459 34.5033 21.7004 34.4305 22.7691C34.3582 23.8271 34.2192 24.517 33.9847 25.0833L36.2092 26.0047C36.5856 25.0962 36.752 24.1136 36.8326 22.933C36.9124 21.7633 36.9118 20.313 36.9118 18.4597H34.504ZM26.4352 31.6885C28.4502 31.6539 29.922 31.5351 31.214 30.9999L30.2926 28.7754C29.465 29.1183 28.4089 29.2464 26.3937 29.2812L26.4352 31.6885ZM33.9847 25.0833C33.2922 26.755 31.9642 28.083 30.2926 28.7754L31.214 30.9999C33.4755 30.0631 35.2724 28.2663 36.2092 26.0047L33.9847 25.0833ZM17.2482 2.00647C14.6442 2.00647 12.6068 2.0052 10.9817 2.15972C9.33868 2.31593 7.99336 2.63983 6.80741 3.36658L8.06548 5.41956C8.80953 4.9636 9.74284 4.69615 11.2096 4.55669C12.6942 4.41553 14.5976 4.41426 17.2482 4.41426V2.00647ZM4.80793 16.8545C4.80793 14.2039 4.8092 12.3006 4.95036 10.8159C5.08982 9.34916 5.35728 8.41585 5.81323 7.6718L3.76026 6.41373C3.03351 7.59968 2.70961 8.94501 2.55339 10.588C2.39888 12.2131 2.40015 14.2506 2.40015 16.8545H4.80793ZM6.80741 3.36658C5.56549 4.12763 4.52131 5.17181 3.76026 6.41373L5.81323 7.6718C6.37576 6.75386 7.14753 5.98208 8.06548 5.41956L6.80741 3.36658ZM18.0774 32.248C17.7516 31.6974 17.4655 31.2115 17.1873 30.8298C16.8942 30.4278 16.5583 30.0659 16.0922 29.7947L14.8817 31.8762C14.9578 31.9203 15.0614 32.0011 15.2414 32.248C15.4363 32.5154 15.6564 32.8847 16.0054 33.4745L18.0774 32.248ZM12.8767 31.6885C13.5815 31.7007 14.0279 31.7097 14.3683 31.7473C14.6863 31.7826 14.8095 31.8341 14.8817 31.8762L16.0922 29.7947C15.6223 29.5214 15.1333 29.4095 14.6333 29.3541C14.1556 29.3013 13.5783 29.2926 12.9182 29.2812L12.8767 31.6885ZM23.3065 33.4745C23.6554 32.8847 23.8755 32.5154 24.0704 32.248C24.2503 32.0011 24.354 31.9203 24.4301 31.8762L23.2196 29.7947C22.7537 30.0659 22.4175 30.4278 22.1246 30.8298C21.8464 31.2115 21.5604 31.6974 21.2343 32.248L23.3065 33.4745ZM26.3937 29.2812C25.7335 29.2926 25.1563 29.3013 24.6786 29.3541C24.1786 29.4095 23.6896 29.5214 23.2196 29.7947L24.4301 31.8762C24.5023 31.8341 24.6256 31.7826 24.9436 31.7473C25.2839 31.7097 25.7303 31.7007 26.4352 31.6885L26.3937 29.2812Z" fill="white"/>
<path d="M22.4363 34.9445L15.5605 46.5623L29.3125 23.327L22.4363 34.9445ZM21.2343 32.248L28.1098 20.6299L14.3578 43.8653L21.2343 32.248ZM16.0054 33.4745L9.12793 21.8577L22.8823 45.0917L16.0054 33.4745ZM16.0922 29.7947L27.7621 36.5818L4.42253 23.0073L16.0922 29.7947ZM14.5241 45.9489L15.5601 46.5621L29.3125 23.327L28.2765 22.7138L14.5241 45.9489ZM29.1459 21.2431L28.1098 20.6299L14.3589 43.866L15.3951 44.4792L29.1459 21.2431ZM10.1639 21.2443L9.12793 21.8577L22.8829 45.0913L23.9189 44.4779L10.1639 21.2443ZM24.7878 45.9489L25.8238 45.3357L12.0714 22.1006L11.0354 22.7138L24.7878 45.9489ZM8.56374 2.00647V4.41426H35.5637V2.00647H8.56374ZM34.504 30.3545H36.9118V3.35449H34.504V30.3545ZM9.381 38.0165L10.4933 37.5558L0.161202 12.6109L-0.951051 13.0716L9.381 38.0165ZM-0.600574 30.2524L-0.621312 31.456L26.3747 31.9211L26.3954 30.7176L-0.600574 30.2524ZM-3.91377 24.7214L-4.37448 25.8337L20.5703 36.1662L21.031 35.0539L-3.91377 24.7214ZM29.9308 38.0165L31.0431 38.4771L41.3753 13.5323L40.263 13.0716L29.9308 38.0165ZM39.9125 30.2528L39.8917 29.0491L12.8957 29.5134L12.9164 30.7172L39.9125 30.2528ZM18.2808 35.0538L18.7415 36.166L43.6864 25.8338L43.2257 24.7216L18.2808 35.0538ZM18.947 -2.66074L18.318 -3.68723L-4.70319 10.4204L-4.07414 11.4469L18.947 -2.66074ZM11.8406 -4.46782L10.8141 -5.09686L-3.29355 17.9243L-2.26706 18.5534L11.8406 -4.46782ZM27.1566 37.6228L27.7619 36.5821L4.42253 23.0073L3.81727 24.048L27.1566 37.6228ZM30.183 21.8571L28.1108 20.6306L14.3578 43.8653L16.43 45.0919L30.183 21.8571ZM13.4883 45.3359L15.5605 46.5623L29.3121 23.3267L27.24 22.1004L13.4883 45.3359ZM23.7518 46.5621L25.8238 45.3357L12.0714 22.1006L9.99938 23.327L23.7518 46.5621ZM11.2006 20.6308L9.12856 21.8573L22.8823 45.0917L24.9543 43.8651L11.2006 20.6308ZM3.74817 2.00647V4.41426H30.7482V2.00647H3.74817ZM34.504 31.9597H36.9118V4.95968H34.504V31.9597ZM4.80793 3.35449H2.40015V30.3545H4.80793V3.35449ZM2.40015 31.9597H4.80793V4.95968H2.40015V31.9597ZM8.26875 38.4772L10.4933 37.5558L0.161202 12.6109L-2.0633 13.5323L8.26875 38.4772ZM-3.45307 23.6092L-4.37448 25.8337L20.5703 36.1662L21.4917 33.9417L-3.45307 23.6092ZM26.3747 31.9211L26.4162 29.5138L-0.579835 29.0487L-0.621313 31.456L26.3747 31.9211ZM28.8186 37.5558L31.0431 38.4771L41.3753 13.5323L39.1508 12.6109L28.8186 37.5558ZM43.6864 25.8338L42.765 23.6094L17.8202 33.9415L18.7415 36.166L43.6864 25.8338ZM12.8957 29.5135L12.9372 31.9208L39.9332 31.4563L39.8917 29.049L12.8957 29.5135ZM-4.70323 10.4203L-3.44516 12.4733L19.5761 -1.63419L18.318 -3.68716L-4.70323 10.4203ZM12.867 -3.83883L10.814 -5.0969L-3.29349 17.9244L-1.24051 19.1824L12.867 -3.83883ZM4.42231 23.0077L3.21177 25.0892L26.5516 38.6632L27.7621 36.5818L4.42231 23.0077ZM36.1002 25.0894L34.8897 23.008L11.5496 36.5815L12.7601 38.6629L36.1002 25.0894ZM22.4363 34.9445L-0.798179 21.191L-0.798727 21.1919L22.4363 34.9445ZM21.2343 32.248L-1.99826 18.4913L-2.00082 18.4956L21.2343 32.248ZM16.0054 33.4745L-7.23018 47.2261L-7.22897 47.2282L16.0054 33.4745ZM18.9476 33.7181L-4.28758 47.4705L-4.28493 47.475L18.9476 33.7181ZM5.32723 25.0833L30.2721 14.7511L30.2718 14.7506L5.32723 25.0833ZM12.8767 31.6885L13.3439 4.69259L13.3412 4.69254L12.8767 31.6885ZM8.09789 30.9999L-2.23472 55.9446L-2.23379 55.945L8.09789 30.9999ZM36.2092 26.0047L11.2653 15.6702L11.2645 15.6721L36.2092 26.0047ZM26.3937 29.2812L26.8598 56.2772L26.8604 56.2772L26.3937 29.2812ZM31.214 30.9999L41.5464 55.9447L41.5466 55.9446L31.214 30.9999ZM6.80741 3.36658L-7.30007 -19.6547L-7.3001 -19.6547L6.80741 3.36658ZM3.76026 6.41373L-19.261 -7.69378L-19.261 -7.69374L3.76026 6.41373ZM16.0922 29.7947L29.6688 6.45646L29.6684 6.45619L16.0922 29.7947ZM23.3065 33.4745L46.541 47.228L46.5432 47.2242L23.3065 33.4745ZM20.3642 33.7181L-2.871 19.9658L-2.87147 19.9666L20.3642 33.7181ZM16.8756 34.9445L40.1106 21.1919L40.11 21.1908L16.8756 34.9445ZM18.0774 32.248L-5.15816 45.9996L-5.15775 46.0003L18.0774 32.248ZM2.4793 22.933L-24.4581 24.771L-24.4581 24.7712L2.4793 22.933ZM3.10272 26.0047L28.0474 15.6722L28.0472 15.6717L3.10272 26.0047ZM4.88152 22.7691L31.8189 20.9312L31.8189 20.9311L4.88152 22.7691ZM12.9182 29.2812L12.4515 56.2772L12.4521 56.2772L12.9182 29.2812ZM9.0193 28.7754L-1.31419 53.7198L-1.31377 53.7199L9.0193 28.7754ZM34.4305 22.7691L61.3677 24.6083L61.3679 24.606L34.4305 22.7691ZM33.9847 25.0833L58.9291 35.4166L58.9303 35.4137L33.9847 25.0833ZM36.8326 22.933L63.77 24.7716L63.77 24.7703L36.8326 22.933ZM26.4352 31.6885L25.9706 4.69254L25.9679 4.69259L26.4352 31.6885ZM30.2926 28.7754L19.9594 3.83102L19.9588 3.83124L30.2926 28.7754ZM10.9817 2.15972L13.5373 29.0385L13.5374 29.0385L10.9817 2.15972ZM8.06548 5.41956L-6.04193 -17.6018L-6.04209 -17.6017L8.06548 5.41956ZM11.2096 4.55669L8.65396 -22.3221L8.65393 -22.3221L11.2096 4.55669ZM4.95036 10.8159L-21.9284 8.26025L-21.9284 8.26028L4.95036 10.8159ZM5.81323 7.6718L-17.208 -6.43577L-17.2081 -6.4356L5.81323 7.6718ZM2.55339 10.588L29.4322 13.1437L29.4322 13.1437L2.55339 10.588ZM17.1873 30.8298L39.0077 14.9279L39.0028 14.9212L17.1873 30.8298ZM14.8817 31.8762L1.28295 55.2016L1.30869 55.2166L1.33446 55.2316L14.8817 31.8762ZM15.2414 32.248L37.0644 16.3496L37.0587 16.3418L15.2414 32.248ZM14.3683 31.7473L17.3483 4.91225L17.3393 4.91126L17.3303 4.91027L14.3683 31.7473ZM14.6333 29.3541L17.6055 2.51822L17.6003 2.51763L14.6333 29.3541ZM24.0704 32.248L2.25109 16.3446L2.24925 16.3471L24.0704 32.248ZM24.4301 31.8762L37.9795 55.2303L37.9974 55.2199L38.0153 55.2095L24.4301 31.8762ZM23.2196 29.7947L9.64487 6.45538L9.64162 6.45727L23.2196 29.7947ZM22.1246 30.8298L0.304915 14.9269L0.304186 14.9279L22.1246 30.8298ZM24.6786 29.3541L21.7118 2.51761L21.7064 2.51821L24.6786 29.3541ZM24.9436 31.7473L21.9814 4.91028L21.9724 4.91127L21.9634 4.91227L24.9436 31.7473ZM22.0637 31.4143C37.6401 31.4143 50.2676 18.7872 50.2676 3.21036H-3.73237C-3.73237 -11.0367 7.81715 -22.5857 22.0637 -22.5857V31.4143ZM50.2676 3.21036C50.2676 -12.3664 37.6401 -24.9935 22.0637 -24.9935V29.0065C7.81715 29.0065 -3.73237 17.4574 -3.73237 3.21036H50.2676ZM63.9118 16.8545C63.9118 1.27793 51.2844 -11.3494 35.7079 -11.3494V42.6506C21.461 42.6506 9.91176 31.1013 9.91176 16.8545H63.9118ZM35.7079 -11.3494C20.1313 -11.3494 7.50397 1.27793 7.50397 16.8545H61.504C61.504 31.1013 49.9547 42.6506 35.7079 42.6506V-11.3494ZM45.6708 48.698L46.541 47.228L0.0719967 19.721L-0.798179 21.191L45.6708 48.698ZM-2.00082 18.4956L-2.871 19.9658L43.5993 47.4705L44.4695 46.0003L-2.00082 18.4956ZM-7.22897 47.2282L-6.35878 48.6982L40.11 21.1908L39.2398 19.7208L-7.22897 47.2282ZM42.1827 19.9658L41.3126 18.4956L-5.15775 46.0003L-4.28758 47.4705L42.1827 19.9658ZM-2.87147 19.9666C7.27636 2.82007 32.0366 2.83099 42.1801 19.9613L-4.28493 47.475C6.47754 65.6506 32.8333 65.6615 43.5998 47.4697L-2.87147 19.9666ZM-6.35943 48.6971C5.33703 68.4583 33.9749 68.4583 45.6713 48.6971L-0.798727 21.1919C8.41418 5.62669 30.8977 5.62669 40.1106 21.1919L-6.35943 48.6971ZM17.2482 31.4143H22.0637V-22.5857H17.2482V31.4143ZM22.0637 -24.9935H17.2482V29.0065H22.0637V-24.9935ZM7.50397 16.8545V18.4597H61.504V16.8545H7.50397ZM63.9118 18.4597V16.8545H9.91176V18.4597H63.9118ZM31.8079 18.4597V16.8545H-22.1921V18.4597H31.8079ZM-24.5999 16.8545V18.4597H29.4001V16.8545H-24.5999ZM-24.5999 18.4597C-24.5999 19.9477 -24.6151 22.47 -24.4581 24.771L29.4167 21.0951C29.425 21.2175 29.4143 21.1176 29.4074 20.595C29.4005 20.0708 29.4001 19.4413 29.4001 18.4597H-24.5999ZM-24.4581 24.7712C-24.2835 27.3297 -23.8074 31.5927 -21.8418 36.3377L28.0472 15.6717C29.2601 18.5997 29.4032 20.8976 29.4167 21.0948L-24.4581 24.7712ZM30.2718 14.7506C31.6287 18.0261 31.7977 20.6204 31.8189 20.9312L-22.0559 24.6071C-21.8903 27.0338 -21.4434 31.008 -19.6174 35.4161L30.2718 14.7506ZM31.8189 20.9311C31.8311 21.1103 31.8216 21.0639 31.8151 20.5671C31.8086 20.0713 31.8079 19.451 31.8079 18.4597H-22.1921C-22.1921 19.9722 -22.2061 22.4051 -22.0558 24.6072L31.8189 20.9311ZM13.3848 2.28527C12.7062 2.27354 13.0981 2.25319 13.9497 2.36214C14.9858 2.49469 16.974 2.84574 19.3524 3.83095L-1.31377 53.7199C4.73616 56.2261 10.4769 56.2431 12.4515 56.2772L13.3848 2.28527ZM-2.23379 55.945C4.25512 58.6325 10.3713 58.6494 12.4122 58.6845L13.3412 4.69254C12.5964 4.67973 12.9312 4.6583 13.6752 4.7544C14.5684 4.86978 16.3161 5.1795 18.4296 6.05485L-2.23379 55.945ZM-21.842 36.3372C-18.1649 45.2144 -11.1121 52.2674 -2.23472 55.9446L18.4305 6.05523C22.7847 7.85884 26.2439 11.3182 28.0474 15.6722L-21.842 36.3372ZM19.3528 3.83112C24.2954 5.87867 28.2238 9.80612 30.2721 14.7511L-19.6176 35.4156C-16.1846 43.7039 -9.60001 50.2873 -1.31419 53.7198L19.3528 3.83112ZM7.50397 18.4597C7.50397 19.451 7.50335 20.0715 7.49686 20.5675C7.49035 21.0645 7.48081 21.1111 7.49301 20.9323L61.3679 24.606C61.518 22.4046 61.504 19.9721 61.504 18.4597H7.50397ZM7.49317 20.93C7.51448 20.6178 7.68376 18.0258 9.03908 14.753L58.9303 35.4137C60.7547 31.0083 61.202 27.0365 61.3677 24.6083L7.49317 20.93ZM61.1531 36.3392C63.1196 31.5928 63.5954 27.3288 63.77 24.7716L9.89529 21.0945C9.90867 20.8985 10.0516 18.5996 11.2653 15.6702L61.1531 36.3392ZM63.77 24.7703C63.9269 22.4698 63.9118 19.9481 63.9118 18.4597H9.91176C9.91176 19.4412 9.91142 20.0708 9.90448 20.595C9.89755 21.1176 9.88688 21.2179 9.8952 21.0958L63.77 24.7703ZM26.8997 58.6845C28.94 58.6494 35.057 58.6327 41.5464 55.9447L20.8815 6.05516C22.9956 5.1795 24.7437 4.86975 25.6367 4.7544C26.3807 4.6583 26.7155 4.67972 25.9706 4.69254L26.8997 58.6845ZM19.9588 3.83124C22.3378 2.84569 24.3264 2.49465 25.3623 2.36213C26.2138 2.25319 26.6056 2.27354 25.9271 2.28527L26.8604 56.2772C28.8344 56.2431 34.5759 56.2262 40.6263 53.7197L19.9588 3.83124ZM9.04027 14.7501C11.0881 9.80663 15.0159 5.87886 19.9594 3.83102L40.6258 53.7199C48.9126 50.2871 55.4963 43.7034 58.9291 35.4166L9.04027 14.7501ZM41.5466 55.9446C50.4238 52.2675 57.4767 45.2145 61.1538 36.3374L11.2645 15.6721C13.0681 11.318 16.5273 7.8588 20.8813 6.05526L41.5466 55.9446ZM17.2482 -24.9935C15.1611 -24.9935 11.6242 -25.0232 8.42599 -24.7191L13.5374 29.0385C13.3626 29.0551 13.5019 29.0342 14.2419 29.0206C14.9811 29.0071 15.8699 29.0065 17.2482 29.0065V-24.9935ZM8.42602 -24.7191C4.80466 -24.3747 -1.15988 -23.4174 -7.30007 -19.6547L20.9149 26.3879C17.1466 28.6971 13.8727 29.0066 13.5373 29.0385L8.42602 -24.7191ZM22.1729 28.4409C17.9602 31.0224 14.2721 31.3873 13.7652 31.4355L8.65393 -22.3221C5.21358 -21.995 -0.34109 -21.0952 -6.04193 -17.6018L22.1729 28.4409ZM13.7652 31.4355C13.5113 31.4596 13.5756 31.4409 14.2801 31.4281C14.9798 31.4155 15.856 31.4143 17.2482 31.4143V-22.5857C15.1266 -22.5857 11.7146 -22.6131 8.65396 -22.3221L13.7652 31.4355ZM31.8079 16.8545C31.8079 15.4624 31.8091 14.5862 31.8218 13.8864C31.8345 13.1819 31.8533 13.1176 31.8291 13.3715L-21.9284 8.26028C-22.2194 11.3209 -22.1921 14.7329 -22.1921 16.8545H31.8079ZM31.8291 13.3716C31.7809 13.8784 31.4161 17.5665 28.8346 21.7792L-17.2081 -6.4356C-20.7015 -0.734765 -21.6013 4.8199 -21.9284 8.26025L31.8291 13.3716ZM-19.261 -7.69374C-23.0237 -1.55356 -23.9811 4.41099 -24.3254 8.03234L29.4322 13.1437C29.4003 13.479 29.0907 16.7529 26.7815 20.5212L-19.261 -7.69374ZM-24.3254 8.03231C-24.6295 11.2306 -24.5999 14.7675 -24.5999 16.8545H29.4001C29.4001 15.4763 29.4008 14.5874 29.4143 13.8482C29.4278 13.1083 29.4488 12.9689 29.4322 13.1437L-24.3254 8.03231ZM-7.3001 -19.6547C-12.175 -16.6673 -16.2737 -12.5687 -19.261 -7.69378L26.7815 20.5212C25.3163 22.9123 23.306 24.9226 20.9149 26.3878L-7.3001 -19.6547ZM28.8345 21.7794C27.1707 24.4943 24.888 26.777 22.173 28.4408L-6.04209 -17.6017C-10.593 -14.8129 -14.4192 -10.9866 -17.208 -6.43577L28.8345 21.7794ZM41.313 18.4963C41.2368 18.3675 40.218 16.5886 39.0077 14.9279L-4.63306 46.7317C-4.86642 46.4115 -5.04126 46.1523 -5.15026 45.9869C-5.25997 45.8203 -5.33242 45.7037 -5.35665 45.6645C-5.38077 45.6255 -5.38143 45.6235 -5.34231 45.6891C-5.29881 45.7619 -5.25258 45.8401 -5.15816 45.9996L41.313 18.4963ZM39.0028 14.9212C37.4449 12.7847 34.5045 9.2695 29.6688 6.45646L2.51558 53.133C-1.38795 50.8622 -3.65645 48.0709 -4.62818 46.7384L39.0028 14.9212ZM1.33446 55.2316C-0.5498 54.1386 -2.29185 52.8161 -3.83971 51.3048C-5.17823 49.9979 -6.08491 48.8275 -6.57584 48.1541L37.0587 16.3418C35.624 14.3739 32.9065 11.1181 28.4289 8.52082L1.33446 55.2316ZM-6.58157 48.1463C-6.84559 47.7839 -7.04645 47.4856 -7.17479 47.2902C-7.30204 47.0964 -7.38769 46.9583 -7.41624 46.912C-7.44515 46.8651 -7.44879 46.8583 -7.40963 46.9238C-7.37023 46.9897 -7.318 47.0777 -7.23018 47.2261L39.241 19.7229C39.1625 19.5902 38.1955 17.9022 37.0644 16.3496L-6.58157 48.1463ZM12.4094 58.6845C12.5871 58.6876 12.6956 58.6896 12.7789 58.6914C12.8616 58.6931 12.862 58.6935 12.816 58.6919C12.7707 58.6903 12.6197 58.6848 12.4011 58.6711C12.181 58.6573 11.8367 58.6318 11.4062 58.5843L17.3303 4.91027C15.452 4.70295 13.5294 4.6958 13.3439 4.69259L12.4094 58.6845ZM11.3882 58.5823C10.5785 58.4924 9.13355 58.2901 7.35565 57.7863C5.29927 57.2035 3.2474 56.3469 1.28295 55.2016L28.4804 8.55077C23.923 5.89383 19.6772 5.17088 17.3483 4.91225L11.3882 58.5823ZM29.6684 6.45619C24.7381 3.58824 20.148 2.79981 17.6055 2.51822L11.661 56.19C10.1185 56.0192 6.50642 55.4545 2.51605 53.1333L29.6684 6.45619ZM17.6003 2.51763C15.5894 2.29531 13.5597 2.28829 13.3842 2.28526L12.4521 56.2772C12.6417 56.2805 12.7395 56.2821 12.831 56.2841C12.9143 56.2858 12.9209 56.2864 12.8843 56.2851C12.8476 56.2838 12.721 56.279 12.5333 56.267C12.347 56.2551 12.0473 56.2327 11.6663 56.1906L17.6003 2.51763ZM46.5432 47.2242C46.631 47.0758 46.6832 46.9878 46.7225 46.922C46.7617 46.8565 46.7579 46.8636 46.7288 46.9108C46.7 46.9574 46.6141 47.0961 46.4864 47.2904C46.3577 47.4865 46.1563 47.7855 45.8915 48.1488L2.24925 16.3471C1.11595 17.9023 0.147458 19.5935 0.0697768 19.7247L46.5432 47.2242ZM45.8897 48.1514C45.3982 48.8257 44.4912 49.9967 43.1522 51.3041C41.6039 52.8159 39.8622 54.138 37.9795 55.2303L10.8808 8.52206C6.40495 11.1188 3.68762 14.3736 2.25109 16.3446L45.8897 48.1514ZM9.64162 6.45727C4.80954 9.26863 1.86834 12.7818 0.304915 14.9269L43.9442 46.7327C42.9667 48.0739 40.6978 50.8631 36.7977 53.1322L9.64162 6.45727ZM0.304186 14.9279C-0.904925 16.587 -1.92471 18.3671 -1.99826 18.4913L44.4669 46.0046C44.562 45.844 44.6083 45.7659 44.6524 45.692C44.6919 45.6259 44.6915 45.6273 44.6677 45.6659C44.6437 45.7047 44.5715 45.8209 44.4619 45.9872C44.3531 46.1525 44.1783 46.4115 43.945 46.7317L0.304186 14.9279ZM25.9277 2.28526C25.7519 2.2883 23.7225 2.29532 21.7118 2.51761L27.6454 56.1906C27.2645 56.2327 26.9649 56.2551 26.7786 56.267C26.5909 56.279 26.4643 56.2838 26.4276 56.2851C26.391 56.2864 26.3975 56.2858 26.4809 56.2841C26.5724 56.2821 26.6702 56.2805 26.8598 56.2772L25.9277 2.28526ZM21.7064 2.51821C19.1628 2.79993 14.5739 3.58853 9.64487 6.45538L36.7944 53.1341C32.8054 55.4542 29.1944 56.0191 27.6508 56.19L21.7064 2.51821ZM38.0153 55.2095C36.0579 56.3491 34.0108 57.2042 31.955 57.7866C30.1781 58.2901 28.7338 58.4924 27.9238 58.5823L21.9634 4.91227C19.6293 5.17149 15.3929 5.89494 10.8449 8.54289L38.0153 55.2095ZM27.9058 58.5843C27.4753 58.6318 27.1309 58.6573 26.9108 58.6711C26.6922 58.6848 26.5412 58.6903 26.4959 58.6919C26.4498 58.6935 26.4503 58.6931 26.533 58.6914C26.6162 58.6896 26.7248 58.6876 26.9024 58.6845L25.9679 4.69259C25.7824 4.6958 23.8598 4.70295 21.9814 4.91028L27.9058 58.5843Z" fill="white" mask="url(#path-1-inside-1_740_255)"/>
<path d="M30.8922 12.8415C33.5518 12.8415 35.7078 10.6855 35.7078 8.0259C35.7078 5.36633 33.5518 3.21033 30.8922 3.21033C28.2327 3.21033 26.0767 5.36633 26.0767 8.0259C26.0767 10.6855 28.2327 12.8415 30.8922 12.8415Z" stroke="#2CDD00" stroke-width="1.5"/>
</svg>