<svg xmlns="http://www.w3.org/2000/svg" width="28" height="18" viewBox="0 0 28 18" fill="none">
  <path d="M24.6926 5.57227H21.9787C22.348 5.95111 22.5701 6.42587 22.5701 6.94139V11.593C22.5701 12.8231 21.3092 13.8277 19.7721 13.8277H12.9332C13.2965 14.5711 14.2001 15.101 15.2569 15.101H24.6926C26.0616 15.101 27.1844 14.2066 27.1844 13.1108V7.5624C27.1814 6.46663 26.0616 5.57227 24.6926 5.57227Z" fill="#4DE228"/>
  <path d="M21.5374 10.3343V3.23458C21.5374 1.45544 19.7151 0 17.4875 0H4.0499C1.8223 0 0 1.45544 0 3.23458V10.3343C0 12.0248 1.64518 13.4203 3.71666 13.5569C3.71666 13.5569 3.11623 17.283 3.86376 17.283C4.6113 17.283 9.51981 13.5689 9.51981 13.5689H17.4845C19.7151 13.5689 21.5374 12.1135 21.5374 10.3343ZM8.8053 12.1303L8.28292 12.5235C8.27392 12.5307 7.24718 13.3076 6.08535 14.1324C5.83017 14.3122 5.599 14.4753 5.38585 14.6239C5.44289 14.1228 5.50293 13.7463 5.50293 13.7415L5.74311 12.2477L3.86376 12.1231C2.70794 12.0463 1.80129 11.2599 1.80129 10.3343V3.23458C1.80129 2.75742 2.03545 2.30904 2.46476 1.96856C2.89107 1.62808 3.45547 1.43865 4.0499 1.43865H17.4875C18.0849 1.43865 18.6463 1.62568 19.0726 1.96856C19.4989 2.30904 19.7361 2.75982 19.7361 3.23458V10.3343C19.7361 10.8115 19.5019 11.2599 19.0726 11.6004C18.6463 11.9408 18.0819 12.1303 17.4875 12.1303H8.8053Z" fill="white"/>
  <path d="M23.0264 4.47265C22.54 4.39353 22.0627 4.64289 21.9636 5.03133C21.8646 5.41977 22.1768 5.80101 22.6631 5.88014C23.834 6.07196 24.6836 6.90398 24.6836 7.85829V12.1023C24.6836 13.0998 23.7499 13.9606 22.513 14.102L21.5313 14.2147L21.7655 14.9844C21.8255 15.1786 21.8826 15.3872 21.9396 15.5911C21.4112 15.1978 20.8198 14.747 20.2824 14.3274L20.0212 14.1212H14.9866C14.3292 14.1212 13.8879 14.0877 13.5696 13.915C13.1583 13.692 12.5969 13.776 12.3177 14.1044C12.0385 14.4329 12.1436 14.8813 12.5549 15.1043C13.3265 15.5239 14.2151 15.5599 14.9866 15.5599H19.2857C19.5859 15.7925 20.1053 16.1905 20.6367 16.5861C21.123 16.9482 21.5253 17.2359 21.8315 17.4469C22.432 17.8545 22.7112 18.0008 23.0804 18.0008C23.3716 18.0008 23.6418 17.8953 23.825 17.7107C24.1282 17.4014 24.1312 17.0129 23.84 15.8236C23.7979 15.651 23.7529 15.4832 23.7109 15.3297C25.344 14.8238 26.4849 13.5482 26.4849 12.1023V7.85829C26.4879 6.22781 25.0318 4.80354 23.0264 4.47265Z" fill="white"/>
</svg>