<svg xmlns="http://www.w3.org/2000/svg" width="27" height="25" viewBox="0 0 27 25" fill="none">
<path opacity="0.1" d="M3.47734 6.68457C3.375 7.0423 3.375 7.51558 3.375 8.33318V16.6665C3.375 17.6373 3.375 18.1226 3.54627 18.5054C3.77463 19.0159 4.21265 19.4214 4.76396 19.6329C5.17745 19.7916 5.70163 19.7916 6.75 19.7916H20.25C21.2984 19.7916 21.8225 19.7916 22.2361 19.6329C22.7873 19.4214 23.2254 19.0159 23.4538 18.5054C23.625 18.1226 23.625 17.6373 23.625 16.6665V8.33318C23.625 7.51557 23.625 7.0423 23.5226 6.68457C23.4585 6.81426 23.3643 6.93376 23.2408 7.03379L15.7224 13.1251C14.45 14.156 12.55 14.156 11.2776 13.1251L3.75919 7.03379C3.63572 6.93376 3.54155 6.81426 3.47734 6.68457Z" fill="#2CDD00" stroke="#FCFCFC" stroke-width="0.48" stroke-linecap="round" stroke-linejoin="round"/>
<path d="M3.375 8.33301C3.375 7.3623 3.375 6.87695 3.54627 6.49408C3.77463 5.98361 4.21265 5.57804 4.76396 5.36659C5.17745 5.20801 5.70164 5.20801 6.75 5.20801H20.25C21.2984 5.20801 21.8225 5.20801 22.2361 5.36659C22.7873 5.57804 23.2254 5.98361 23.4538 6.49408C23.625 6.87695 23.625 7.3623 23.625 8.33301V16.6663C23.625 17.6371 23.625 18.1224 23.4538 18.5053C23.2254 19.0157 22.7873 19.4213 22.2361 19.6328C21.8225 19.7913 21.2984 19.7913 20.25 19.7913H6.75C5.70164 19.7913 5.17745 19.7913 4.76396 19.6328C4.21265 19.4213 3.77463 19.0157 3.54627 18.5053C3.375 18.1224 3.375 17.6371 3.375 16.6663V8.33301Z" stroke="#2CDD00" stroke-width="2" stroke-linecap="round" stroke-linejoin="round"/>
<path d="M4.5 6.25L12.0184 12.3412C12.8666 13.0285 14.1334 13.0285 14.9816 12.3412L22.5 6.25" stroke="#2CDD00" stroke-width="2" stroke-linecap="round" stroke-linejoin="round"/>
<path opacity="0.1" d="M3.47734 6.68457C3.375 7.0423 3.375 7.51558 3.375 8.33318V16.6665C3.375 17.6373 3.375 18.1226 3.54627 18.5054C3.77463 19.0159 4.21265 19.4214 4.76396 19.6329C5.17745 19.7916 5.70163 19.7916 6.75 19.7916H20.25C21.2984 19.7916 21.8225 19.7916 22.2361 19.6329C22.7873 19.4214 23.2254 19.0159 23.4538 18.5054C23.625 18.1226 23.625 17.6373 23.625 16.6665V8.33318C23.625 7.51557 23.625 7.0423 23.5226 6.68457C23.4585 6.81426 23.3643 6.93376 23.2408 7.03379L15.7224 13.1251C14.45 14.156 12.55 14.156 11.2776 13.1251L3.75919 7.03379C3.63572 6.93376 3.54155 6.81426 3.47734 6.68457Z" fill="#2CDD00"/>
<path d="M3.375 8.33301C3.375 7.3623 3.375 6.87695 3.54627 6.49408C3.77463 5.98361 4.21265 5.57804 4.76396 5.36659C5.17745 5.20801 5.70164 5.20801 6.75 5.20801H20.25C21.2984 5.20801 21.8225 5.20801 22.2361 5.36659C22.7873 5.57804 23.2254 5.98361 23.4538 6.49408C23.625 6.87695 23.625 7.3623 23.625 8.33301V16.6663C23.625 17.6371 23.625 18.1224 23.4538 18.5053C23.2254 19.0157 22.7873 19.4213 22.2361 19.6328C21.8225 19.7913 21.2984 19.7913 20.25 19.7913H6.75C5.70164 19.7913 5.17745 19.7913 4.76396 19.6328C4.21265 19.4213 3.77463 19.0157 3.54627 18.5053C3.375 18.1224 3.375 17.6371 3.375 16.6663V8.33301Z" stroke="#2CDD00" stroke-width="2" stroke-linejoin="round"/>
<path d="M4.5 6.25L12.0184 12.3412C12.8666 13.0285 14.1334 13.0285 14.9816 12.3412L22.5 6.25" stroke="white" stroke-width="0.75" stroke-linecap="round" stroke-linejoin="round"/>
</svg>