<svg width="13" height="13" viewBox="0 0 13 13" fill="none" xmlns="http://www.w3.org/2000/svg">
<g id="Frame" clip-path="url(#clip0_930_503)">
<g id="SVGRepo_iconCarrier">
<path id="Vector" d="M7.32001 7.3916H11.1042V7.61822H7.32001V7.3916ZM7.83307 9.17057H10.8735V9.39719H7.83307V9.17057ZM8.4778 10.8929H10.6604V11.1195H8.4778V10.8929Z" fill="#78DF5F"/>
<path id="Vector_2" d="M2.09162 13.0003H0V5.88723H2.10927L2.09162 13.0003ZM0.597219 12.3771H1.49576L1.51069 6.51044H0.597219V12.3771ZM10.3142 13.0003H2.80557L2.80014 5.89006L7.75163 1.22168L8.90806 2.51767L8.00138 5.30368H12.2091L10.3142 13.0003ZM3.40143 12.3771H9.8514L11.4395 5.92689H8.05703L7.16798 5.92547L8.22805 2.66922L7.71498 2.09559L3.40143 6.51044V12.3771Z" fill="white"/>
</g>
</g>
<defs>
<clipPath id="clip0_930_503">
<rect width="13" height="13" fill="white"/>
</clipPath>
</defs>
</svg>
