<svg width="13" height="13" viewBox="0 0 13 13" fill="none" xmlns="http://www.w3.org/2000/svg">
<g clip-path="url(#clip0_930_399)">
<path d="M5.53418 5.50879L1.93878 5.60161L1.93322 5.38629L5.52862 5.29347L5.53418 5.50879ZM5.00308 3.83115L2.11438 3.90573L2.10882 3.69041L4.99752 3.61584L5.00308 3.83115ZM4.34827 2.21058L2.2746 2.26411L2.26904 2.0488L4.34272 1.99526L4.34827 2.21058Z" fill="#78DF5F"/>
<path d="M10.3641 0.0517365L12.3514 0.000434636L12.5259 6.75862L10.5218 6.81035L10.3641 0.0517365ZM11.7993 0.607198L10.9456 0.629237L11.0753 6.20356L11.9432 6.18115L11.7993 0.607198ZM2.55176 0.253415L9.68582 0.0692477L9.86537 6.82461L5.27542 11.3815L4.14489 10.1786L4.93801 7.50931L0.940252 7.61251L2.55176 0.253415ZM9.13497 0.675978L3.0068 0.834178L1.65617 7.00152L4.86985 6.91856L5.71457 6.8981L4.78726 10.0179L5.2888 10.5503L9.27886 6.24993L9.13497 0.675978Z" fill="white"/>
</g>
<defs>
<clipPath id="clip0_930_399">
<rect width="12.3555" height="12.3555" fill="white" transform="translate(12.6703 12.3516) rotate(178.521)"/>
</clipPath>
</defs>
</svg>
